<svg xmlns="http://www.w3.org/2000/svg" width="140" height="140" fill="none"><g fill="#636363" clip-path="url(#a)"><path d="M78.577 75.96h2.994V64.665h-2.994V75.96Zm0-13.057h2.994v-2.686h-2.994v2.686Zm4.924 16.757h2.995v-4.976h.043c.639.969 1.674 1.607 3.259 1.607 2.906 0 4.888-2.311 4.888-5.967 0-3.523-1.916-5.967-4.91-5.967-1.541 0-2.598.727-3.325 1.718h-.066v-1.41h-2.884V79.66Zm5.658-5.857c-1.783 0-2.73-1.343-2.73-3.39 0-2.026.749-3.633 2.62-3.633 1.85 0 2.598 1.497 2.598 3.632 0 2.136-.968 3.391-2.488 3.391Zm11.501 2.488c2.818 0 4.756-1.365 4.756-3.633 0-2.642-2.092-3.17-3.986-3.567-1.607-.33-3.104-.418-3.104-1.387 0-.814.77-1.255 1.937-1.255 1.278 0 2.048.44 2.18 1.652h2.708c-.22-2.268-1.871-3.744-4.843-3.744-2.577 0-4.602 1.167-4.602 3.612 0 2.466 1.981 3.016 4.007 3.412 1.541.309 2.972.419 2.972 1.498 0 .792-.748 1.299-2.069 1.299-1.344 0-2.268-.573-2.466-1.872h-2.775c.177 2.4 2.004 3.985 5.285 3.985Zm16.125-.331V64.663h-2.995v6.517c0 1.498-.859 2.555-2.268 2.555-1.277 0-1.871-.727-1.871-2.048v-7.024h-2.973v7.53c0 2.466 1.409 4.074 3.92 4.074 1.585 0 2.466-.595 3.236-1.63h.066v1.322h2.885Zm1.936.001h2.995V69.4c0-1.498.815-2.466 2.026-2.466 1.101 0 1.739.66 1.739 1.937v7.09h2.995V69.4c0-1.498.77-2.466 2.025-2.466 1.101 0 1.74.66 1.74 1.937v7.09h2.994v-7.596c0-2.466-1.343-4.008-3.721-4.008-1.431 0-2.62.749-3.391 1.982h-.044c-.55-1.189-1.695-1.982-3.127-1.982-1.563 0-2.663.793-3.28 1.828h-.066v-1.52h-2.885v11.296ZM.53 75.96h2.994V60.217H.529V75.96Zm10.316.331c3.5 0 5.9-2.598 5.9-5.967 0-3.368-2.4-5.967-5.9-5.967-3.501 0-5.901 2.599-5.901 5.967 0 3.37 2.4 5.967 5.9 5.967Zm0-2.29c-1.85 0-2.863-1.475-2.863-3.677 0-2.201 1.013-3.699 2.863-3.699 1.827 0 2.862 1.498 2.862 3.7 0 2.201-1.035 3.676-2.862 3.676Zm12.269 5.813c1.673 0 3.127-.396 4.073-1.277.837-.77 1.344-1.85 1.344-3.435V64.666h-2.885v1.189h-.044c-.683-.947-1.717-1.498-3.127-1.498-2.862 0-4.888 2.158-4.888 5.527 0 3.413 2.466 5.394 4.976 5.394 1.432 0 2.29-.572 2.95-1.32h.067v1.233c0 1.54-.815 2.355-2.51 2.355-1.387 0-2.026-.55-2.268-1.255h-2.972c.308 2.202 2.201 3.523 5.284 3.523Zm-.044-6.935c-1.541 0-2.554-1.123-2.554-3.039 0-1.894 1.013-3.083 2.532-3.083 1.805 0 2.686 1.41 2.686 3.061 0 1.673-.77 3.06-2.664 3.06Zm12.739 3.412c3.501 0 5.901-2.598 5.901-5.967 0-3.368-2.4-5.967-5.9-5.967-3.502 0-5.902 2.599-5.902 5.967 0 3.37 2.4 5.967 5.901 5.967Zm0-2.29c-1.85 0-2.862-1.475-2.862-3.677 0-2.201 1.013-3.699 2.862-3.699 1.828 0 2.862 1.498 2.862 3.7 0 2.201-1.034 3.676-2.862 3.676ZM136.323 62.81c0-.507.411-.917.918-.917h1.835a.917.917 0 0 1 0 1.834h-1.835a.918.918 0 0 1-.918-.917Z"/><path fill-rule="evenodd" d="M59.87 57c7.094 0 12.845 5.75 12.845 12.844 0 7.094-5.75 12.844-12.844 12.844-7.094 0-12.844-5.75-12.844-12.844C47.027 62.751 52.777 57 59.87 57Zm-.463.961c-1.466.206-2.86 1.384-3.944 3.353a13.365 13.365 0 0 0-.845 1.883 21.49 21.49 0 0 1 4.789-.622v-4.614Zm-5.874 5.545c.307-.964.683-1.851 1.117-2.64.536-.976 1.174-1.819 1.892-2.466a11.94 11.94 0 0 0-8.115 8.115c.647-.718 1.49-1.355 2.466-1.892.789-.434 1.676-.81 2.64-1.117Zm-.309 1.085a21.49 21.49 0 0 0-.622 4.789h-4.614c.206-1.465 1.383-2.86 3.353-3.944a13.383 13.383 0 0 1 1.883-.845Zm.307 4.789c.038-1.853.305-3.593.746-5.13 1.537-.44 3.277-.708 5.13-.746v2.006a6.834 6.834 0 0 1-3.87 3.87H53.53Zm-.929.928h-4.614c.206 1.466 1.383 2.86 3.353 3.944.571.314 1.202.598 1.883.845a21.49 21.49 0 0 1-.622-4.789Zm1.675 5.13c-.44-1.537-.708-3.277-.746-5.13h2.005c1.77.691 3.18 2.1 3.87 3.87v2.006c-1.852-.038-3.592-.305-5.129-.746Zm-.744.744a14.828 14.828 0 0 1-2.64-1.117c-.976-.537-1.819-1.174-2.466-1.892a11.94 11.94 0 0 0 8.114 8.115c-.717-.647-1.355-1.49-1.891-2.466a14.831 14.831 0 0 1-1.117-2.64Zm5.874 5.545c-1.466-.206-2.86-1.384-3.944-3.353a13.358 13.358 0 0 1-.845-1.883c1.473.37 3.09.588 4.789.621v4.615Zm3.793-.439c.718-.647 1.355-1.49 1.892-2.466.434-.789.81-1.676 1.117-2.64.964-.307 1.85-.683 2.64-1.117.976-.537 1.819-1.174 2.466-1.892a11.941 11.941 0 0 1-8.115 8.115Zm1.924-4.797a13.405 13.405 0 0 1-.846 1.883c-1.082 1.97-2.478 3.147-3.943 3.353v-4.615a21.496 21.496 0 0 0 4.789-.621Zm1.393-1.394a13.347 13.347 0 0 0 1.884-.845c1.97-1.083 3.147-2.478 3.353-3.944h-4.615a21.513 21.513 0 0 1-.622 4.788Zm-.306-4.789c-.039 1.853-.305 3.593-.747 5.13-1.537.44-3.276.708-5.129.746V74.18a6.834 6.834 0 0 1 3.871-3.872h2.005Zm.928-.928h4.615c-.206-1.465-1.384-2.86-3.353-3.944a13.367 13.367 0 0 0-1.884-.845c.37 1.473.589 3.091.623 4.789Zm-1.675-5.13c.442 1.537.708 3.277.747 5.13h-2.005a6.834 6.834 0 0 1-3.87-3.872v-2.004c1.852.038 3.591.305 5.128.747Zm.745-.744c.964.307 1.85.683 2.64 1.117.976.537 1.819 1.174 2.466 1.892A11.941 11.941 0 0 0 63.2 58.4c.718.647 1.355 1.49 1.892 2.467.434.788.81 1.675 1.117 2.639Zm-5.874-5.545c1.465.206 2.86 1.384 3.943 3.353.315.571.598 1.202.846 1.883a21.496 21.496 0 0 0-4.789-.622v-4.614Z" clip-rule="evenodd"/></g><defs><clipPath id="a"><path fill="#fff" d="M0 57h140v25.688H0z"/></clipPath></defs></svg>