<svg xmlns="http://www.w3.org/2000/svg" width="140" height="140" fill="none"><g fill="#636363" clip-path="url(#a)"><path d="M102.312 46.563c0 .862.7 1.562 1.563 1.562h1.563a1.562 1.562 0 0 0 0-3.125h-1.563c-.863 0-1.563.7-1.563 1.563ZM57 95h7.59l-2.21-2.21a3.125 3.125 0 0 0-2.209-.915H57c-12.081 0-21.875-9.794-21.875-21.875S44.919 48.125 57 48.125h25c12.081 0 21.875 9.794 21.875 21.875S94.081 91.875 82 91.875h-9.352a4.688 4.688 0 0 1-3.315-1.373l-2.588-2.589a7.813 7.813 0 0 0-5.525-2.288H57c-8.63 0-15.625-6.996-15.625-15.625 0-8.63 6.995-15.625 15.625-15.625h25c8.63 0 15.625 6.995 15.625 15.625 0 8.63-6.996 15.625-15.625 15.625h-6.005a4.688 4.688 0 0 1-3.315-1.373l-2.588-2.589a7.812 7.812 0 0 0-5.525-2.288H57a9.375 9.375 0 0 1 0-18.75h25a9.375 9.375 0 0 1 .189 18.748l-.001.002h-2.287a4.688 4.688 0 0 1-3.314-1.373l-2.59-2.589a7.812 7.812 0 0 0-4.418-2.21l-.079-.078H57a3.125 3.125 0 1 1 0-6.25h25a3.125 3.125 0 1 1 0 6.25h-6.25l2.21 2.21c.586.586 1.38.915 2.21.915H82a6.25 6.25 0 0 0 0-12.5H57a6.25 6.25 0 0 0 0 12.5h11.474c1.243 0 2.435.494 3.314 1.373l2.59 2.589A7.812 7.812 0 0 0 79.9 82.5h2.88v-.024C89.321 82.073 94.5 76.641 94.5 70c0-6.904-5.597-12.5-12.5-12.5H57c-6.904 0-12.5 5.596-12.5 12.5S50.096 82.5 57 82.5h7.567c1.244 0 2.436.494 3.315 1.373l2.589 2.589a7.812 7.812 0 0 0 5.524 2.288H82c10.355 0 18.75-8.395 18.75-18.75S92.355 51.25 82 51.25H57c-10.355 0-18.75 8.395-18.75 18.75S46.645 88.75 57 88.75h4.22c1.244 0 2.436.494 3.315 1.373l2.589 2.589A7.812 7.812 0 0 0 72.648 95H82c13.807 0 25-11.193 25-25S95.807 45 82 45H57c-13.807 0-25 11.193-25 25s11.193 25 25 25Z"/></g><defs><clipPath id="a"><path fill="#fff" d="M32 45h75v50H32z"/></clipPath></defs></svg>