<svg xmlns="http://www.w3.org/2000/svg" width="140" height="140" fill="none"><g clip-path="url(#a)"><path fill="#636363" d="M24.77 54.235C25.03 53.001 26.26 52 27.513 52h6.812L28.66 78.823h-6.812c-1.254 0-2.06-1-1.799-2.235l4.721-22.353Zm22.707 0C47.738 53.001 48.967 52 50.22 52h6.812l-5.665 26.823h-6.812c-1.254 0-2.06-1-1.799-2.235l4.721-22.353Zm45.415 0C93.152 53.001 94.38 52 95.635 52h6.812l-5.665 26.823H89.97c-1.254 0-2.059-1-1.798-2.235l4.721-22.353ZM59.303 52h6.812c1.254 0 2.06 1 1.8 2.235l-4.722 22.353c-.26 1.235-1.489 2.235-2.743 2.235h-6.812L59.303 52Zm45.415 0h6.812c1.254 0 2.06 1 1.799 2.235l-4.722 22.353c-.26 1.235-1.488 2.235-2.742 2.235h-6.813L104.718 52Zm-34.533 2.235c.26-1.234 1.488-2.235 2.742-2.235h6.813l-5.666 26.823h-6.812c-1.254 0-2.06-1-1.798-2.235l4.72-22.353h.001ZM82.01 52h6.813c1.254 0 2.06 1 1.798 2.235l-7.08 33.53C83.277 88.999 82.05 90 80.795 90h-6.813l8.027-38ZM32.82 69.882h9.082l-1.416 6.706c-.26 1.235-1.49 2.235-2.743 2.235H30.93l1.888-8.94.001-.001Zm31.7 11.177h9.082L71.714 90h-6.812c-1.255 0-2.06-1-1.799-2.235l1.417-6.706Zm24.654 2.079-1.15 5.446c-.05.234-.128.298-.366.298h-.523c-.238 0-.29-.064-.24-.298l1.15-5.446c.05-.233.128-.298.366-.298h.523c.238 0 .29.065.24.298Zm1.512 3.674h-.107c-.114 0-.154.032-.177.145l-.344 1.627c-.05.234-.129.298-.366.298h-.524c-.237 0-.289-.064-.24-.298l1.15-5.446c.05-.233.13-.298.367-.298h1.08c1.244 0 1.715.443 1.485 1.53l-.192.911c-.23 1.088-.888 1.531-2.132 1.531Zm.316-2.699-.3 1.426c-.025.113.001.145.116.145h.172c.4 0 .615-.161.702-.572l.12-.572c.087-.41-.059-.572-.46-.572h-.172c-.114 0-.154.032-.178.145Zm3.738.878.85.935c.446.483.508.773.394 1.313l-.03.145c-.215 1.015-.727 1.579-1.914 1.579-1.186 0-1.479-.475-1.205-1.773l.034-.16c.05-.234.13-.299.366-.299h.556c.238 0 .29.065.24.298l-.075.355c-.068.322.036.451.322.451.287 0 .443-.12.505-.41l.032-.154c.048-.226.022-.338-.224-.604l-.8-.862c-.448-.475-.505-.75-.39-1.29l.036-.176c.215-1.015.727-1.58 1.913-1.58 1.187 0 1.48.476 1.206 1.773l-.034.161c-.05.234-.129.298-.366.298H95.6c-.237 0-.289-.064-.24-.298l.075-.354c.068-.323-.035-.451-.322-.451-.286 0-.443.12-.504.41l-.029.137c-.05.234-.024.347.161.556Zm4.792-1.853c.05-.233.128-.298.366-.298h.523c.238 0 .29.065.24.298l-.856 4.053c-.274 1.297-.767 1.772-1.954 1.772-1.186 0-1.479-.475-1.205-1.773l.856-4.052c.05-.233.13-.298.366-.298h.524c.237 0 .29.065.24.298l-.897 4.246c-.068.322.044.451.355.451.302 0 .477-.129.545-.451l.897-4.246Zm3.406 3.279c.003.065.024.08.065.08.04 0 .069-.015.099-.08l1.414-3.367c.069-.17.151-.21.356-.21h.794c.237 0 .289.065.24.298l-1.15 5.446c-.05.234-.13.298-.367.298h-.376c-.237 0-.29-.064-.24-.298l.552-2.61c.015-.072.002-.089-.047-.089-.033 0-.07.017-.09.073l-1.142 2.659c-.082.193-.187.265-.424.265h-.222c-.246 0-.32-.072-.32-.265l-.028-2.66c-.005-.056-.018-.072-.059-.072-.049 0-.069.017-.084.089l-.551 2.61c-.05.234-.128.298-.366.298h-.376c-.238 0-.29-.064-.24-.298l1.15-5.446c.05-.233.129-.298.366-.298h.68c.286 0 .378.065.376.347l-.011 3.23h.001ZM120 52c0 1.105-.89 2-1.987 2a1.987 1.987 0 0 1-1.408-.588 1.999 1.999 0 0 1-.579-1.412c0-1.105.89-2 1.987-2s1.987.895 1.987 2Z"/></g><defs><clipPath id="a"><path fill="#fff" d="M20 50h100v40H20z"/></clipPath></defs></svg>