<svg xmlns="http://www.w3.org/2000/svg" width="140" height="140" fill="none"><g fill="#636363" clip-path="url(#a)"><path d="M42.686 50a15.313 15.313 0 0 0-10.828 4.485l-9.373 9.373A15.313 15.313 0 0 0 18 74.686C18 83.144 24.856 90 33.314 90c4.061 0 7.956-1.614 10.828-4.485l6.483-6.483 18.89-18.89a7.314 7.314 0 0 1 12.126 2.903l5.962-5.961C84.883 52.824 80.115 50 74.686 50a15.313 15.313 0 0 0-10.828 4.485L38.485 79.858a7.314 7.314 0 1 1-10.343-10.343l9.373-9.373a7.314 7.314 0 0 1 12.127 2.904l5.961-5.962C52.883 52.824 48.115 50 42.686 50Z"/><path d="M70.485 79.858a7.314 7.314 0 0 1-12.126-2.902l-5.961 5.96C55.118 87.177 59.886 90 65.314 90c4.061 0 7.956-1.614 10.828-4.485l25.373-25.373a7.314 7.314 0 1 1 10.343 10.343l-9.373 9.373a7.317 7.317 0 0 1-12.126-2.903l-5.962 5.961C87.117 87.176 91.886 90 97.314 90c4.061 0 7.956-1.614 10.828-4.485l9.373-9.373A15.313 15.313 0 0 0 122 65.314C122 56.856 115.144 50 106.686 50a15.313 15.313 0 0 0-10.828 4.485L70.485 79.858Z"/></g><defs><clipPath id="a"><path fill="#fff" d="M18 50h104v40H18z"/></clipPath></defs></svg>