<svg xmlns="http://www.w3.org/2000/svg" width="140" height="140" fill="none"><path fill="#636363" d="M3.46 84.735h30.177V54.56H3.46v30.176Zm24.368-17.992h-6.376v-6.376h6.376v6.376ZM9.267 60.367h6.38V72.55h12.181v6.377H9.267v-18.56Zm44.02-5.808a15.088 15.088 0 1 0 15.088 15.088 15.106 15.106 0 0 0-15.088-15.088Zm0 24.368a9.28 9.28 0 1 1 9.28-9.28 9.294 9.294 0 0 1-9.28 9.28Zm69.081-24.368a15.09 15.09 0 0 0-13.94 9.313 15.082 15.082 0 0 0 3.27 16.443 15.085 15.085 0 0 0 23.214-2.285 15.08 15.08 0 0 0 2.543-8.383 15.104 15.104 0 0 0-15.087-15.088Zm0 24.368a9.283 9.283 0 0 1-8.574-5.728 9.276 9.276 0 0 1 2.011-10.114 9.276 9.276 0 0 1 10.113-2.012 9.283 9.283 0 0 1 5.729 8.574 9.293 9.293 0 0 1-9.279 9.28ZM87.827 54.559a15.088 15.088 0 1 0 15.088 15.088 15.104 15.104 0 0 0-15.088-15.088Zm0 24.368a9.28 9.28 0 1 1 8.81-12.184h-8.81v5.807h8.81a9.294 9.294 0 0 1-8.81 6.377Z"/></svg>