<svg xmlns="http://www.w3.org/2000/svg" width="140" height="140" fill="none"><path fill="#636363" d="M26.384 66.889c2.636 0 3.23 1.145 3.23 2.573 0 1.514-.718 2.6-3.22 2.6-2.485 0-3.203-1.023-3.203-2.6 0-1.552.783-2.573 3.193-2.573Zm27.554 0c2.637 0 3.23 1.145 3.23 2.573 0 1.514-.718 2.6-3.219 2.6-2.484 0-3.204-1.023-3.204-2.6 0-1.552.784-2.573 3.193-2.573Z"/><path fill="#636363" fill-rule="evenodd" d="M3.04 84.35V54.56h133.243v29.79H3.039Zm63.503-1.681h68.059V56.241h-68.06v26.428Zm-40.147-8.072c4.681 0 6.649-2.02 6.649-5.173 0-3.204-2.217-5.11-6.649-5.11-4.364 0-6.661 2.07-6.661 5.11 0 3.432 2.41 5.173 6.661 5.173ZM10.122 64.542v9.904h9.447v-2.638h-6.03v-7.266h-3.417Zm33.497 9.904-.089-.96a6.05 6.05 0 0 1-3.936 1.11c-2.107 0-3.861-.63-4.845-1.904a5.209 5.209 0 0 1-.934-3.18 4.925 4.925 0 0 1 .963-3.09c.995-1.237 2.8-2.057 5.487-2.057 3.091 0 4.908.946 5.69 2.536.167.374.266.776.29 1.186h-3.27a1.344 1.344 0 0 0-.441-.631 3.477 3.477 0 0 0-2.208-.568 3.25 3.25 0 0 0-2.549.795 2.738 2.738 0 0 0-.517 1.855c-.045.63.124 1.257.48 1.779a3.314 3.314 0 0 0 2.61.87 3.646 3.646 0 0 0 2.6-.807c.156-.196.264-.427.315-.673h-3.52V68.58h6.586v5.867h-2.712Zm10.332.15c4.68 0 6.649-2.018 6.649-5.172 0-3.204-2.22-5.11-6.649-5.11-4.364 0-6.661 2.07-6.661 5.11 0 3.432 2.41 5.173 6.661 5.173Z" clip-rule="evenodd"/><path fill="#636363" d="M72.3 74.408v-9.904h2.437v9.904H72.3Zm14.95-4.138c-.618.808-1.68 1.176-3.179 1.186l-4.504-.013v2.965h-2.385v-9.904h6.89a3.955 3.955 0 0 1 3.065.997c.544.71.81 1.594.745 2.485a3.57 3.57 0 0 1-.632 2.284Zm-1.956-3.229c-.252-.378-.795-.588-1.715-.588h-4.025v3.015h3.999c.984 0 1.502-.202 1.741-.594.142-.275.204-.586.177-.895a1.919 1.919 0 0 0-.177-.938Zm9.614 7.517c-4.492 0-5.866-1.68-5.866-3.343h2.548c0 .82 1.123 1.438 3.432 1.438 2.295 0 2.901-.404 2.901-1.06 0-.732-.454-.959-2.586-1.198a56.383 56.383 0 0 1-1.993-.24c-3.025-.341-4.19-1.237-4.19-2.84 0-1.69 1.704-2.963 5.4-2.963 4.013 0 5.552 1.577 5.552 3.217h-2.52c0-.833-.947-1.313-3.18-1.313-2.297 0-2.788.316-2.788.934 0 .644.504.845 2.94 1.135.556.076 1.792.215 2.132.252 2.575.265 3.735 1.198 3.735 2.851-.004 1.969-1.77 3.13-5.517 3.13Zm12.693-.012c-3.292 0-5.437-1.3-5.437-4.033v-6.01h2.409v6.044c0 1.25 1.022 2.081 3.129 2.081 1.905 0 3.041-.781 3.041-2.081v-6.043h2.384v6.234c0 2.484-1.994 3.808-5.526 3.808Zm18.584-.138v-6.611l-3.092 6.61h-2.346l-3.003-6.61v6.61h-2.268v-9.903h3.073l3.407 7.544 3.482-7.544h3.025v9.904h-2.278Z"/></svg>