<svg xmlns="http://www.w3.org/2000/svg" width="140" height="140" fill="none"><g clip-path="url(#a)"><path fill="#636363" d="m136.315 60.131 3.339 3.362a.741.741 0 0 1 .248.36c.068.828-.558.873-1.198.92-.277.02-.556.04-.782.124a5.66 5.66 0 0 0-4.166 4.99.788.788 0 0 1-.75.413.753.753 0 0 1-.466-.217l-1.096-1.104c.008.076.008.15.008.21v.728c0 .046.002.09-.004.135a.313.313 0 0 1-.063.15v.068c0 .035.004.067.008.1.008.066.017.135-.008.23-.024.09-.027.194-.03.287a1.288 1.288 0 0 1-.008.149c-.008.058-.008.12-.013.182a.463.463 0 0 1-.04.17.571.571 0 0 0-.05.223c-.002.035-.002.071-.002.108l-.045.232-1.703 8.12-.136.608-.052.886-.751 3.835-.12.6H67.7l-.293-.293-.052.256h-6.5l-3.617-3.64.345-1.644h-2.04l-1.27-1.283a8.938 8.938 0 0 1-5.425 1.711 7.918 7.918 0 0 1-5.673-2.086L41.2 77.03l-.428 1.997a8.67 8.67 0 0 1-.195.818l-.068.248-.112.36a.459.459 0 0 1-.038.09 8.15 8.15 0 0 1-.398.968.06.06 0 0 1 0 .038.983.983 0 0 1-.067.12 7.015 7.015 0 0 1-.375.653.95.95 0 0 0-.068.12l-.082.09a7.294 7.294 0 0 1-.6.75c-.06.06-.12.115-.18.17-.061.056-.124.111-.189.168l-.165.158a7.259 7.259 0 0 1-.592.442 9.072 9.072 0 0 1-5.126 1.254c-2.477 0-4.458-.72-5.711-1.982l-3.527-3.55a9.148 9.148 0 0 1-4.623 1.186 7.932 7.932 0 0 1-5.644-2.116l-1.974-1.989-.637 3.07-.128.608H3.632L0 77.039l.188-.885L4.18 56.979l.12-.6h6.664l.173.165v-.165h44.9l.166.165v-.165h6.499l3.632 3.662-.18.878-.195.96h1.868l.293.294a5.47 5.47 0 0 1 2.71-.75 5.017 5.017 0 0 1 3.752 1.575l-.098-.112 1.764 1.778c1.073-2.019 3.482-3.242 6.754-3.242 2.536 0 4.405.646 5.538 1.816l1.276 1.284.428-2.064.127-.6h6.507l1.861 1.868.263-1.26.128-.601h12.803l.345.345a5.416 5.416 0 0 1 2.867-.75 4.104 4.104 0 0 1 3.226 1.373l-.061-.07a2.17 2.17 0 0 0-.11-.124l.652.652a5.997 5.997 0 0 1 4.39-1.831 4.45 4.45 0 0 1 1.288.108l-.71-.716a.752.752 0 0 1 .104-1.117.75.75 0 0 1 .391-.144h.571c.153-.015.306-.037.457-.068a5.498 5.498 0 0 0 3.753-2.851 2.18 2.18 0 0 0 .09-.173v-.037a5.196 5.196 0 0 0 .465-1.764.751.751 0 0 1 .751-.698h.06a.75.75 0 0 1 .563.345c.54.526 3.541 3.58 3.541 3.58.251.269.232.618.213.971-.012.219-.024.439.027.642a4.91 4.91 0 0 0 .812.076.75.75 0 0 1 .697.517Z"/><path fill="#000" d="M34.349 62.6h4.743l-2.657 12.6c-.488 2.387-1.418 3.753-2.83 4.721a8.435 8.435 0 0 1-4.712 1.126c-3.137 0-6.146-1.313-6.447-4.503h4.773c.15.75.841 1.178 1.892 1.178 1.418 0 2.07-.855 2.364-2.198l.285-1.389h-.105a4.592 4.592 0 0 1-3.295 1.501c-2.761 0-4.953-2.199-4.908-5.418.06-3.753 2.507-8.015 6.612-8.015a4.082 4.082 0 0 1 3.857 2.116h.083l.345-1.718Zm-4.075 9.517c1.823 0 2.837-2.102 2.867-3.91 0-1.209-.473-2.447-1.869-2.447-1.906 0-2.874 2.124-2.904 3.947 0 1.231.473 2.41 1.868 2.41m53.284.405c0 .803-.691 1.125-1.6 1.125-1.5 0-2.003-.75-2.01-1.8h-4.72c-.083 3.917 3.414 4.885 6.521 4.885 3.97 0 6.544-1.719 6.597-5.148 0-2.74-2.334-3.573-4.63-4.105-1.764-.406-2.537-.698-2.53-1.366.008-.668.796-.938 1.569-.938.968 0 1.628.345 1.696 1.23h4.585c-.052-3.272-3.002-4.232-6.004-4.232-3.647 0-6.491 1.658-6.536 4.795 0 2.47 1.666 3.377 4.18 4.023 1.613.428 2.896.563 2.882 1.53Zm35.069-7.888h-.083a3.362 3.362 0 0 0-3.422-2.461c-2.041 0-3.286 1.013-4.465 2.544h-.082l.435-2.116h-4.774l-2.859 13.673h4.991l1.501-7.377c.345-1.606 1.163-2.732 2.402-2.732 1.238 0 1.403.99 1.148 2.2l-1.651 7.91h4.99l1.502-7.378c.344-1.711 1.163-2.732 2.4-2.732 1.239 0 1.404.938 1.149 2.2l-1.651 7.91h4.99l1.787-8.129c.75-3.43-.398-6.003-3.692-6.003a5.482 5.482 0 0 0-4.616 2.491ZM.916 76.274H6.07L10.056 57.1H4.908L.916 76.274Zm15.52-14.079c3.481 0 6.806 1.906 6.753 6.222-.045 4.72-3.257 8.255-8.165 8.255-3.377 0-6.754-1.876-6.694-6.169.083-4.608 3.25-8.308 8.105-8.308Zm-1.269 11.13c2.199 0 3.002-3.19 3.002-5.066 0-1.343-.413-2.657-1.861-2.657-2.177 0-2.92 3.377-2.92 5.119 0 1.395.39 2.604 1.809 2.604M11.775 57.1l-.75 3.834h43.294l.75-3.834H11.775Zm34.822 5.095c3.482 0 6.806 1.906 6.754 6.222-.045 4.72-3.265 8.255-8.173 8.255-3.377 0-6.754-1.876-6.686-6.169.105-4.608 3.272-8.308 8.105-8.308Zm-1.246 11.13c2.199 0 3.002-3.19 3.002-5.066 0-1.343-.42-2.657-1.869-2.657-2.169 0-2.92 3.377-2.92 5.119 0 1.395.39 2.604 1.817 2.604M56.84 57.1l-.751 3.834h4.983l.75-3.834H56.84Zm-3.993 19.174h4.99l2.86-13.673h-5.02l-2.83 13.673Zm15.925.458a4.286 4.286 0 0 1-3.993-2.094h-.082l-1.501 6.92h-5.05L62.198 62.6h4.743l-.375 1.823a5.53 5.53 0 0 1 4.27-2.251c3.002 0 4.765 2.574 4.713 5.921-.068 4.21-2.252 8.638-6.807 8.638h.03Zm-.195-10.687c-1.929 0-3.115 2.47-3.145 4.368 0 1.32.466 2.792 2.05 2.792 2.063 0 2.91-2.732 2.933-4.556 0-1.238-.36-2.604-1.838-2.604Zm28.856 8.075h.082l-.435 2.17h4.742l2.86-13.675H99.7l-1.591 7.64c-.323 1.584-1.299 2.417-2.529 2.417-1.231 0-1.502-1.156-1.254-2.364l1.614-7.693h-4.983l-1.764 8.443c-.75 3.678.96 5.659 3.828 5.659a5.117 5.117 0 0 0 4.413-2.612v.015Zm26.768 7.505.751-3.835H65.771l-.75 3.835h59.181Z"/><path fill="#000" d="M129.568 66.353a.373.373 0 0 1-.328-.26.38.38 0 0 1-.017-.145 4.759 4.759 0 0 0-2.884-4.831 4.77 4.77 0 0 0-1.956-.377c-.1 0-.195-.04-.265-.11a.374.374 0 0 1 .265-.64c.18.01.36.01.54 0a5.764 5.764 0 0 0 5.133-5.254.376.376 0 0 1 .375-.345.373.373 0 0 1 .329.259.38.38 0 0 1 .017.146 4.773 4.773 0 0 0 2.879 4.829 4.768 4.768 0 0 0 1.954.38.375.375 0 0 1 0 .75 5.788 5.788 0 0 0-5.666 5.253.375.375 0 0 1-.376.345Z"/></g><defs><clipPath id="a"><path fill="#fff" d="M0 54h140v32H0z"/></clipPath></defs></svg>